<svg xmlns="http://www.w3.org/2000/svg" viewBox="0 0 660 660"><defs><style>.cls-1{fill:#fff;}</style></defs><title>Asset 1</title><g id="Layer_2" data-name="Layer 2"><g id="Wazer_on_black" data-name="Wazer on black"><path class="cls-1" d="M225.35,660A105.15,105.15,0,0,1,120.44,559.6a293.74,293.74,0,0,1-61.27-47.49C30.66,483.29-1.91,437,.09,401.43,1.33,379.27,19.34,361.5,42,360.1c15.82-1,18.19-10,18.19-15.3V301.23c0-67.76,22.78-133.92,64.14-186.28C182,41.9,268,0,360.33,0,440.21,0,515.42,31.23,572.1,87.94S660,219.88,660,299.78a297.9,297.9,0,0,1-87.77,212,303.36,303.36,0,0,1-32.81,28.43,108.18,108.18,0,0,1-5.66,52.19,102,102,0,0,1-63,61.7A111.8,111.8,0,0,1,435.16,660h0a105.06,105.06,0,0,1-94.76-60h-20a104.48,104.48,0,0,1-28.08,36.07A105.63,105.63,0,0,1,225.35,660Z"/><path d="M630,299.78c0-71.89-28.1-139.59-79.12-190.63S432.19,30,360.33,30c-82.87,0-160,37.14-212.49,103.55-37.67,47.68-57.68,106.92-57.68,167.68V344.8c0,22.3-15.78,43.36-46.34,45.24-7.28.45-13.37,5.8-13.78,13.08C28.9,423.45,50.65,460.84,80.5,491a263.47,263.47,0,0,0,70.94,51.19A75,75,0,0,0,225.35,630a74.59,74.59,0,0,0,73.58-60l62.92,0c8.38,42.33,52.32,71.36,99.39,55.58a71.37,71.37,0,0,0,44.3-43.42c7-19.56,6.07-38.55-.33-54.8A271.65,271.65,0,0,0,551,490.55,268.08,268.08,0,0,0,630,299.78Z"/><path class="cls-1" d="M360.28,540.24l-61.31,0a75.06,75.06,0,0,0-136.56-25.93v.5A235.65,235.65,0,0,1,101.82,470c-21.11-21.35-32.6-40.87-37.84-53.2A73.23,73.23,0,0,0,99.89,396a74.91,74.91,0,0,0,20-51.26v-44.6A239.24,239.24,0,0,1,170.27,153.2C217,93.33,286,59.82,360.27,59.82a240,240,0,0,1,169.6,409.64C485.62,513.73,424.89,540.24,360.28,540.24Z"/><ellipse cx="480.11" cy="239.94" rx="29.99" ry="30"/><ellipse cx="300.04" cy="239.94" rx="29.99" ry="30"/><path d="M309.2,338.2a15.09,15.09,0,0,0-13.67-8.52h0A14.92,14.92,0,0,0,282,350.85a120,120,0,0,0,217.09,0,14.92,14.92,0,0,0-13.58-21.17h-.38a14.74,14.74,0,0,0-13.28,8.52,89.94,89.94,0,0,1-162.61,0Z"/></g></g></svg>